# xmcd
#
# Track frame offsets:
#	150
#	19177
#	38972
#	54120
#	71952
#	84722
#	101235
#	135525
#	160772
#	178110
#	198559
#	216932
#	238435
#
# Disc length: 3477 seconds
#
# Revision: 1
# Processed by: cddbd v1.4PL0 Copyright (c) Steve Scherf et al.
# Submitted via: audiograbber 1.81.03
#
DISCID=c20d930d
DTITLE=Mississippi Heat - Straight From The Heart
DYEAR=1995
DGENRE=Blues
TTITLE0=Lovin' You
TTITLE1=Midnight Ride
TTITLE2=Leavin' Town
TTITLE3=She Knows What Love Is About
TTITLE4=No Sorrows
TTITLE5=Ruby Mae
TTITLE6=Heartbroken
TTITLE7=Straight From The Heart
TTITLE8=I Wish You'd Stay
TTITLE9=Lonely Without You
TTITLE10=Bad Luck
TTITLE11=Mother-In-Law Blues
TTITLE12=Mississippi Heat
EXTD=
EXTT0=
EXTT1=
EXTT2=
EXTT3=
EXTT4=
EXTT5=
EXTT6=
EXTT7=
EXTT8=
EXTT9=
EXTT10=
EXTT11=
EXTT12=
PLAYORDER=
